Coordinates
version=1
nRows=6
nColumns=63
inDegrees=yes

Units are S.I. units (second, meters, Newtons, ...)
If the header above contains a line with 'inDegrees', this indicates whether rotational values are in degrees (yes) or radians (no).

endheader
time	pelvis_tilt	pelvis_list	pelvis_rotation	pelvis_tx	pelvis_ty	pelvis_tz	hip_flexion_r	hip_adduction_r	hip_rotation_r	knee_angle_r	knee_angle_r_beta	ankle_angle_r	subtalar_angle_r	mtp_angle_r	hip_flexion_l	hip_adduction_l	hip_rotation_l	knee_angle_l	knee_angle_l_beta	ankle_angle_l	subtalar_angle_l	mtp_angle_l	L5_S1_Flex_Ext	L5_S1_Lat_Bending	L5_S1_axial_rotation	L4_L5_Flex_Ext	L4_L5_Lat_Bending	L4_L5_axial_rotation	L3_L4_Flex_Ext	L3_L4_Lat_Bending	L3_L4_axial_rotation	L2_L3_Flex_Ext	L2_L3_Lat_Bending	L2_L3_axial_rotation	L1_L2_Flex_Ext	L1_L2_Lat_Bending	L1_L2_axial_rotation	L1_T12_Flex_Ext	L1_T12_Lat_Bending	L1_T12_axial_rotation	Abs_r3	Abs_r2	Abs_r1	Abs_t1	Abs_t2	neck_flexion	neck_bending	neck_rotation	arm_flex_r	arm_add_r	arm_rot_r	elbow_flex_r	pro_sup_r	wrist_flex_r	wrist_dev_r	arm_flex_l	arm_add_l	arm_rot_l	elbow_flex_l	pro_sup_l	wrist_flex_l	wrist_dev_l
3.741379	0.979701	-6.806047	89.309264	0.242718	0.910021	0.668519	17.071588	-1.937997	-7.983241	24.616580	0.429640	46.292615	5.152147	0.000000	14.608984	2.300595	8.682615	18.191405	0.317500	44.199123	-8.498254	0.000000	0.126495	0.298858	-0.040392	0.234914	0.397481	-0.042917	0.207819	0.726642	-0.042917	0.144571	0.726642	-0.035343	0.117463	0.609430	-0.032819	0.072279	0.462930	-0.030294	0.903541	3.380737	-0.224650	0.000000	0.000000	28.305404	3.049190	12.679868	11.589212	-12.795217	113.124477	8.320023	9.009834	-4.300188	-7.855750	13.647630	-4.258542	146.862513	4.227104	1.897571	-3.676834	-7.748529
3.758621	1.488710	-6.630723	88.944031	0.242920	0.910996	0.669869	16.551138	-1.297613	-8.004218	23.688922	0.413450	45.768347	5.765523	0.000000	14.281038	1.564551	7.593869	17.989454	0.313975	43.819693	-8.072897	0.000000	0.077997	0.380482	0.060647	0.144849	0.506041	0.064438	0.128142	0.925103	0.064438	0.089143	0.925103	0.053066	0.072428	0.775878	0.049276	0.044568	0.589366	0.045486	0.557127	4.304085	0.337303	0.000000	0.000000	28.260059	2.714577	12.920235	10.884448	-13.074945	118.389518	7.729388	3.699743	-2.600018	-7.846232	13.353754	-3.766577	152.125895	3.645798	-1.275350	-2.987010	-8.626331
3.775862	1.960908	-6.421073	88.619974	0.243128	0.912294	0.671116	15.919706	-0.688021	-8.067166	22.661626	0.395520	45.125666	6.401829	0.000000	13.872558	0.869660	6.574412	17.756214	0.309904	43.249879	-7.793218	0.000000	0.030715	0.452356	0.173118	0.057041	0.601634	0.183938	0.050462	1.099859	0.183938	0.035104	1.099859	0.151479	0.028522	0.922445	0.140659	0.017551	0.700700	0.129839	0.219394	5.117145	0.962833	0.000000	0.000000	28.220723	2.347600	12.925136	10.198666	-13.429888	122.559601	7.436210	-0.052730	-1.194772	-7.809359	13.104459	-3.454775	155.736835	3.405522	-2.602763	-2.294951	-9.232272
3.793103	2.343504	-6.195682	88.335467	0.243331	0.913782	0.672179	15.216845	-0.173226	-8.186624	21.596843	0.376936	44.414483	7.060909	0.000000	13.414024	0.286689	5.709404	17.504170	0.305505	42.509741	-7.722615	0.000000	-0.011322	0.508027	0.285630	-0.021027	0.675677	0.303482	-0.018601	1.235218	0.303482	-0.012940	1.235218	0.249926	-0.010514	1.035970	0.232074	-0.006470	0.786935	0.214222	-0.080874	5.746909	1.588588	0.000000	0.000000	28.187968	2.013036	12.772027	9.683434	-13.767834	125.960607	7.161802	-1.990165	-0.315959	-7.688297	12.920701	-3.305803	157.399477	3.451665	-1.996562	-1.666325	-9.634631
3.810345	2.602155	-5.995446	88.122601	0.243462	0.915258	0.673019	14.508711	0.189926	-8.408797	20.562527	0.358884	43.699278	7.739416	0.000000	12.973881	-0.127042	5.078457	17.266538	0.301358	41.656200	-7.879658	0.000000	-0.042640	0.544086	0.386733	-0.079186	0.723635	0.410904	-0.070053	1.322891	0.410904	-0.048733	1.322891	0.338391	-0.039595	1.109501	0.314220	-0.024364	0.842790	0.290050	-0.304572	6.154813	2.150892	0.000000	0.000000	28.163063	1.764067	12.537099	9.375416	-13.964555	128.579235	6.797235	-1.877256	0.013331	-7.419337	12.808237	-3.331212	156.631323	3.803397	0.773736	-1.204755	-9.849437
3.827586	2.727514	-5.864557	87.996805	0.243392	0.916529	0.673671	13.878999	0.361088	-8.792840	19.634414	0.342685	43.048444	8.485091	0.000000	12.637048	-0.339117	4.728593	17.094262	0.298351	40.764992	-8.269025	0.000000	-0.058272	0.561986	0.482223	-0.108216	0.747441	0.512362	-0.095734	1.366412	0.512362	-0.066599	1.366412	0.421945	-0.054111	1.146001	0.391806	-0.033296	0.870516	0.361667	-0.416228	6.357293	2.681980	0.000000	0.000000	28.146334	1.566290	12.239986	9.135757	-13.997618	129.772837	6.506052	0.354197	-0.051529	-6.978071	13.131545	-3.468985	155.665382	4.206145	3.292334	-1.172762	-10.278823
